# xmcd
#
# Track frame offsets:
#	150
#	15400
#	31117
#	49505
#	63770
#	78630
#	97395
#	112135
#	128085
#	145687
#	160222
#	177120
#	195205
#	209022
#
# Disc length: 2993
#
# Revision: 1
# Processed by: cddbd v1.5.1PL0 Copyright (c) Steve Scherf et al.
# Submitted via: VisiTrax 2.9.3.171 - For more info visit www.synapsa.com
# Normalized: r0:DSETVAR1
#
DISCID=b70baf0e
DTITLE=Various Artist - Mr Music Country 10-98
DYEAR=1900
DGENRE=
TTITLE0=Dixie Chicks - Tonight The Heartache's On Me
TTITLE1=Rick Trevino - Serious Love
TTITLE2=Patty Loveless with George Jones - You Don't Seem To Miss Me
TTITLE3=Joe Diffie - John Doe
TTITLE4=Ricochet - Honky tonk Baby
TTITLE5=Collin Raye - Make Sure You've Got It All
TTITLE6=The Kinleys - Dance In The Boat
TTITLE7=James Bonamy - Daddy Never Had a Chance In Hell
TTITLE8=Wade Hayes - One More Night With You
TTITLE9=Johnny Cash - I've Been Everywhere
TTITLE10=Ty Herndon - Hands Of a Working Man
TTITLE11=Ricky van Shelton - Wild Man
TTITLE12=Dolly Parton with Tammy Wynett and Loretta Lynn - Let Her Fly
TTITLE13=Asleep At The Wheel with Tracy Bird - Miles And Miles Of Texas
EXTD=
EXTT0=
EXTT1=
EXTT2=
EXTT3=
EXTT4=
EXTT5=
EXTT6=
EXTT7=
EXTT8=
EXTT9=
EXTT10=
EXTT11=
EXTT12=
EXTT13=
PLAYORDER=
